<mxfile host="app.diagrams.net" modified="2023-01-02T06:21:01.317Z" agent="5.0 (Windows NT 10.0; Win64; x64) AppleWebKit/537.36 (KHTML, like Gecko) Chrome/108.0.0.0 Safari/537.36" etag="Zhx6t2PxoTyCDeMhlYHz" version="20.7.4" type="github">
  <diagram id="uFAfl_5ZbbfO6x_Pxt6Y" name="Page-1">
    <mxGraphModel dx="927" dy="515" grid="1" gridSize="10" guides="1" tooltips="1" connect="1" arrows="1" fold="1" page="1" pageScale="1" pageWidth="850" pageHeight="1100" math="0" shadow="0">
      <root>
        <mxCell id="0" />
        <mxCell id="1" parent="0" />
        <mxCell id="AnUUdsGAanJJeo-KfAqZ-1" value="&lt;font style=&quot;font-size: 17px;&quot;&gt;Home&lt;/font&gt;" style="ellipse;whiteSpace=wrap;html=1;aspect=fixed;strokeWidth=2;" parent="1" vertex="1">
          <mxGeometry x="370" y="120" width="90" height="90" as="geometry" />
        </mxCell>
        <mxCell id="GBu1_ZL9Ya781XCYINDI-1" value="&lt;font style=&quot;font-size: 17px;&quot;&gt;Home&lt;/font&gt;" style="ellipse;whiteSpace=wrap;html=1;aspect=fixed;strokeWidth=2;" vertex="1" parent="1">
          <mxGeometry x="370" y="260" width="90" height="90" as="geometry" />
        </mxCell>
      </root>
    </mxGraphModel>
  </diagram>
</mxfile>
